<?xml version="1.0" encoding="utf-8" ?>
<svg xmlns="http://www.w3.org/2000/svg" xmlns:xlink="http://www.w3.org/1999/xlink" width="1023" height="1023">
	<path fill="#235784" transform="scale(1.6 1.6)" d="M443.508 183.439C446.02 174.399 456.429 136.017 464.291 132.562C474.624 128.023 505.202 121.707 517.654 118.801C523.171 118.131 528.669 122.353 525.55 128.295C522.574 133.963 512.56 134.714 507.106 136.124C495.553 139.112 482.744 141.893 471.46 145.451C466.379 155.335 461.857 173.369 458.725 184.18C474.233 186.393 509.29 188.579 520.51 200.115C529.938 209.81 519.242 234.759 515.222 244.913C494.16 298.113 472.046 328.458 431.863 366.834C432.149 391.933 430.686 419.167 432.156 443.979L440.624 445.009C454.366 446.793 474.742 452.539 483.428 463.996C490.226 472.962 486.787 481.668 478.332 487.961C459.365 502.076 425.215 502.149 402.659 498.965C387.963 497.083 352.234 484.869 367.307 464.436C377.635 450.435 401.22 446.485 417.54 443.998C418.237 418.829 418.329 391.011 417.559 365.843C380.441 332.414 345.629 284.63 330.633 236.943C328.416 229.89 324.33 214.424 324.597 207.411C325.635 180.185 424.251 182.758 443.508 183.439ZM407.062 197.669C392.736 197.92 351.439 200.299 340.587 208.963C362.897 220.067 413.998 219.308 441.959 220.277C458.081 220.105 495.486 217.963 508.872 209.784C492.459 197.63 429.104 197.37 407.062 197.669ZM342.066 224.681C355.527 275.151 388.789 316.896 425.151 353.14C441.432 339.142 455.125 323.107 467.269 305.457C483.419 280.777 497.743 254.909 506.529 226.639C458.051 238.092 388.615 238.302 342.066 224.681ZM431.937 458.357C431.655 472.026 417.652 470.107 417.761 458.96C405.425 460.461 386.293 462.869 378.324 473.523C384.068 482.503 401.978 484.746 412.081 485.729C427.175 487.312 461.649 486.856 472.673 473.615C466.268 463.931 443.907 458.733 431.937 458.357Z"/>
	<path fill="#235784" transform="scale(1.6 1.6)" d="M210.487 399.48C176.377 367.693 152.083 338.922 133.714 295.417C129.211 284.754 115.784 250.182 125.574 239.912C136.133 228.835 192.211 227.205 208.144 227.02C232.732 227.641 293.674 226.195 307.731 241.38C320.835 255.535 279.659 329.903 271.285 343.916C257.419 367.122 245.777 380.74 225.287 398.896C224.444 409.852 224.961 421.123 224.959 432.117L225.022 486.623C242.082 489.628 258.215 489.742 272.098 503.416C280.858 512.044 280.639 523.101 272.078 531.703C259.929 543.909 237.805 547.741 221.172 547.857C201.938 547.897 179.206 546.415 163.516 533.986C153.912 526.379 150.558 515.675 158.933 505.755C170.322 492.265 193.512 488.169 210.3 486.631C212.335 462.76 211.539 423.614 210.487 399.48ZM203.389 241.406C184.518 241.763 157.007 243.823 138.97 248.789C158.667 256.552 210.099 259.951 231.275 259.633C252.325 258.876 275.817 258.793 295.194 249.605C271.75 241.441 228.782 240.521 203.389 241.406ZM138.336 263.972C147.095 303.157 184.94 360.275 217.887 386.216C232.702 373.603 245.207 358.811 255.506 342.319C270.227 318.314 282.171 293.541 291.909 267.132C286.701 268.118 281.561 269.44 276.347 270.383C241.783 276.636 173.719 275.14 138.336 263.972ZM224.989 501.281C224.709 504.967 224.843 510.783 221.732 513.279C213.23 520.099 210.096 507.785 209.844 501.532C198.837 502.175 174.496 506.207 168.856 516.984C172.216 526.804 188.479 530.028 197.286 531.776C214.425 534.465 231.797 534.643 248.389 528.794C287.581 514.977 240.936 502.835 224.989 501.281Z"/>
	<path fill="#235784" transform="scale(1.6 1.6)" d="M419.201 307.45C379.288 308.025 376.675 253.559 414.227 249.494C449.186 244.903 459.542 302.921 419.201 307.45ZM415.029 263.545C395.265 266.338 398.829 293.555 417.872 293.319C437.587 291.465 434.781 262.732 415.029 263.545Z"/>
	<path fill="#235784" transform="scale(1.6 1.6)" d="M214.673 346.296C176.049 350.048 170.458 293.932 208.283 289.17C242.827 284.204 254.987 340.92 214.673 346.296ZM208.456 303.823C189.938 308.245 193.394 333.364 214.134 332.165C233.214 327.752 227.657 301.739 208.456 303.823Z"/>
</svg>
