<?xml version="1.0" encoding="utf-8" ?>
<svg xmlns="http://www.w3.org/2000/svg" xmlns:xlink="http://www.w3.org/1999/xlink" width="1023" height="1023">
	<path fill="#235784" transform="scale(1.6 1.6)" d="M388.253 179.586C379.949 179.687 356.369 184.818 352.184 181.929C347.667 178.811 349.159 173.225 354.278 171.693C367.983 167.591 402.684 162.99 416.681 161.688C428.446 160.034 439.535 168.386 441.815 179.943C445.999 201.157 418.135 210.324 416.882 197.233C416.296 191.12 426.478 191.678 429.302 187.832C431.912 184.276 428.732 177.373 425.52 175.31C420.128 171.845 406.771 175.263 400.515 176.562C403.928 188.449 409.655 199.817 414.181 211.316C416.543 217.318 418.095 223.614 420.457 229.599C427.924 248.512 435.978 267.065 442.828 286.257C481.325 273.222 527.219 289.609 548.072 324.735C572.678 366.183 559.136 421.892 517.11 446.27C467.038 475.315 400.513 450.917 384.315 394.186C374.994 361.542 386.223 323.634 413.168 302.543C418.903 298.054 425.271 294.543 431.602 290.988C428.52 280.943 424.742 270.283 420.074 260.869C377.84 298.762 369.572 336.773 312.922 366.021C326.109 374.907 327.482 391.642 316.73 402.911C320.365 406.29 323.392 409.757 326.151 413.887C354.435 409.35 341.9 434.499 328.223 422.193C326.28 425.038 325.252 426.903 321.684 427.597C314.81 428.933 293.578 428.525 303.113 416.363C305.939 414.262 308.965 414.344 312.32 414.134C310.692 411.776 309.189 409.744 306.874 408.017C293.686 409.409 278.102 406.668 275.942 391.088C267.597 389.283 258.965 388.466 250.501 387.394C249.232 399.115 242.825 413.343 236.182 422.799C192.173 485.449 91.5727 459.45 79.5276 383.841C67.1329 306.038 154.542 255.025 219.892 302.309C226.309 292.466 242.377 276.001 250.7 267.203C240.261 249.851 234.769 233.806 221.975 216.14C217.449 215.641 212.88 215.121 208.535 213.702C185.488 206.175 176.648 181.664 204.124 179.968C213.112 179.413 270.235 178.879 261.144 200.256C258.494 206.488 240.576 210.185 234.379 212.798C237.892 216.731 240.371 222.027 242.885 226.645L252.809 244.873C298.891 215.113 350.639 216.524 403.188 216.603C398.023 204.327 393.395 191.854 388.253 179.586ZM207.449 191.688C204.485 191.945 202.025 192.387 199.28 193.552C208.748 206.915 223.502 203.895 236.941 199.565C240.782 198.472 244.712 197.495 248.499 196.235C238.315 194.635 217.285 191.114 207.449 191.688ZM357.207 228.586C325.837 229.539 285.728 237.286 259.027 255.395C274.775 286.124 285.782 311.818 293.008 346.42C294.024 351.287 294.815 356.307 296.139 361.096C301.074 358.817 305.876 356.228 310.703 353.729C357.393 329.775 370.705 291.108 406.071 257.743C409.091 254.894 412.648 252.027 415.175 248.74C411.415 241.685 408.022 229.263 407.877 229.22C401.81 227.414 365.289 228.344 357.207 228.586ZM256.808 278.361C247.131 288.78 237.408 299.287 228.565 310.434C245.939 330.726 251.641 349.609 251.455 375.884L258.825 376.609L276.299 378.699C277.751 373.704 281.123 369.649 284.602 365.903C283.396 362.705 283.155 358.748 282.575 355.368C280.344 342.342 265.404 287.576 256.808 278.361ZM464.797 294.185C458.943 294.806 452.974 295.543 447.362 297.379C451.957 313.772 458.217 331.61 464.692 347.431C491.022 344.041 504.983 368.641 490.908 386.29C470.099 412.381 430.431 380.435 454.011 353.434C446.981 336.87 442.232 319.363 435.512 302.627C405.464 316.806 389.198 348.741 394.121 381.253C403.15 448.186 492.543 470.611 533.254 415.745C572.962 362.23 529.211 287.086 464.797 294.185ZM158.015 296.064C91.1078 302.449 66.7676 387.21 118.769 429.171C150.021 454.389 198.597 450.866 223.961 419.016L224.286 418.604C231.813 408.876 235.891 398.285 238.58 386.356C233.539 385.231 228.329 384.745 223.214 384.048L189.739 379.687C184.857 390.677 170.266 395.212 159.547 390.352C135.372 379.392 150.286 340.047 178.174 351.383C188.889 338.509 201.3 324.367 212.706 312.317C196.708 301.709 177.661 293.33 158.015 296.064ZM221.15 321.162C215.833 326.23 183.151 359.498 188.694 363.969C189.531 364.644 190.755 365.101 191.264 366.071L191.251 367.256C193.09 368.589 206.082 369.607 209.533 370.102C219.488 371.49 229.606 372.452 239.503 374.131C239.357 355.85 235.284 334.202 221.15 321.162ZM471.294 358.533C453.589 360.969 455.478 383.155 471.772 383.769C488.264 381.308 487.361 358.215 471.294 358.533ZM166.372 362.253C154.532 366.354 158.298 381.615 170.973 380.556C182.882 377.751 180.585 361.368 166.372 362.253ZM298.435 373.187C280.896 378.16 283.366 397.902 301.047 396.364C306.944 394.906 310.616 391.557 312.308 385.841C310.823 379.516 305.852 372.118 298.435 373.187Z"/>
</svg>
