<?xml version="1.0" encoding="utf-8" ?>
<svg xmlns="http://www.w3.org/2000/svg" xmlns:xlink="http://www.w3.org/1999/xlink" width="1024" height="1024">
	<path fill="#235784" transform="scale(1.6 1.6)" d="M324.452 209.327C277.508 213.516 269.282 141.495 319.17 137.001C327.128 135.891 335.993 139.04 342.358 143.689C370.144 163.985 357.529 204.501 324.452 209.327ZM320.07 150.425C288.624 154.162 292.694 197.388 323.379 195.664C355.304 190.329 346.915 148.171 320.07 150.425Z"/>
	<path fill="#235784" transform="scale(1.6 1.6)" d="M180.15 263.715C137.174 265.388 129 199.264 176.692 195.441C218.383 191.515 228.435 257.989 180.15 263.715ZM175.475 208.847C147.204 212.932 154.249 251.56 180.772 250.217C208.514 246.262 202.729 204.771 175.475 208.847Z"/>
	<path fill="#235784" transform="scale(1.6 1.6)" d="M475.642 263.744C431.578 265.251 424.943 199.101 473.97 195.446C513.506 192.55 524.927 257.806 475.642 263.744ZM472.864 208.883C445.261 210.987 446.542 251.02 476.199 250.295C504.05 245.511 499.634 207.81 472.864 208.883Z"/>
	<path fill="#235784" transform="scale(1.6 1.6)" d="M326.251 244.125C297.523 239.164 276.413 264.472 266.848 288.727C264.939 293.568 264.304 299.319 261.503 303.73C257.718 309.693 250.752 305.393 249.971 299.756C248.598 289.847 264.934 262.942 271.393 254.8C281.993 241.436 296.585 232.387 313.597 230.427C347.873 224.747 374.115 259.317 385.569 287.276C387.486 291.955 390.17 297.784 389.308 302.961C388.478 307.94 381.019 309.198 378.345 305.031C375.907 301.23 374.78 296.13 373.153 291.906C365.006 270.75 349.448 249.407 326.251 244.125Z"/>
	<path fill="#235784" transform="scale(1.6 1.6)" d="M192.892 351.785C192.693 356.467 192.317 361.27 192.78 365.938C194.617 384.478 212.481 377.538 225.277 379.349C249.864 382.83 262.291 411.054 272.449 430.599C275.899 437.237 281.084 444.758 281.683 452.43C282.624 464.503 272.064 475.466 260.234 476.329C233.313 478.292 226.175 435.061 211.088 422.585C197.504 411.352 164.508 439.276 140.314 418.767C109.979 393.053 114.433 305.179 135.794 280.158C143.918 270.643 156.146 266.576 167.617 272.319C181.357 279.197 185.523 294.13 196.556 303.619C211.032 316.069 233.929 313.941 251.668 313.929L359.772 313.927C377.831 313.938 397.568 315.912 415.037 310.284C443.044 301.262 459.559 270.171 485.811 268.256C505.322 267.122 518.364 285.333 524.139 301.865C534.686 332.056 537.566 375.094 523.538 403.939C505.379 441.28 460.812 412.616 442.12 419.806C426.154 425.948 418.379 467.998 397.277 475.041C385.056 479.12 371.698 471.992 367.779 459.779C364.009 448.029 377.99 427.214 383.87 416.426C394.994 396.014 406.579 378.736 432.183 378.402C438.463 378.32 450.627 380.255 455.837 378.461C469.103 373.895 458.71 345.813 455.673 337.017C411.941 369.97 380.412 365.58 328.758 365.696C328.038 375.082 328.455 384.735 328.455 394.153L328.457 458.582C328.492 463.813 329.931 475.105 321.997 475.047C313.033 474.98 314.976 463.897 314.976 458.066L315.043 366.024C293.457 365.63 271.846 366.152 250.254 365.877C227.684 364.44 213.372 361.524 192.892 351.785ZM484.885 281.943C459.325 286.836 443.86 322.437 405.853 326.143C399.542 326.758 393.026 326.229 386.674 326.492C373.799 327.026 361.128 327.323 348.224 327.324L253.741 327.329C225.921 327.33 198.646 329.706 179.429 305.244C171.214 294.786 157.727 269.76 143.796 291.564C130.578 312.253 124.044 393.035 151.058 409.979C169.499 421.546 196.454 397.665 216.224 409.914C233.015 420.317 244.934 466.577 260.523 462.711C264.528 461.718 267.205 458.427 268.75 454.785C266.451 445.871 248.945 413.916 243.027 406.17C221.735 378.303 204.184 402.557 187.669 385.79C177.174 375.135 177.801 358.018 181.221 344.567C174.262 340.768 151.014 320.991 156.296 311.401C160.69 303.422 167.047 310.913 169.972 315.119C195.84 350.653 235.886 352.471 275.41 352.453L347.227 352.449C395.139 352.467 429.568 348.696 463.645 309.841C467.055 305.953 473.569 295.205 479.791 296.337C494.857 299.078 468.605 324.619 465.677 327.893C471.527 345.007 486.834 382.43 460.472 391.188C446.156 395.944 430.766 387.204 416.894 395.573C405.679 402.338 397.206 419.648 391.097 430.967C387.881 436.924 378.764 450.083 381.152 456.892C382.709 461.332 388.146 463.82 392.549 462.142C408.868 455.92 415.531 415.012 437.841 406.961C462.135 398.193 499.457 426.842 512.958 394.553C523.209 370.035 520.728 328.95 510.658 304.537C506.278 293.918 498.238 280.307 484.885 281.943Z"/>
	<path fill="#235784" transform="scale(1.6 1.6)" d="M491.803 469.264C482.043 468.238 478.435 455.204 495.934 455.298C511.416 455.381 524.651 451.612 532.167 436.784C544.829 411.807 540.032 356.806 547.076 323.582C548.49 316.909 549.476 305.922 556.645 302.813C568.796 302.739 561.981 318.096 560.617 324.291C558.953 331.848 557.752 339.441 556.834 347.123C550.96 396.279 563.954 472.363 491.803 469.264Z"/>
	<path fill="#235784" transform="scale(1.6 1.6)" d="M155.783 469.041C105.776 472.357 98.272 438.715 95.1501 395.785C93.3671 371.266 92.501 347.585 82.3125 324.788C79.5237 318.549 72.4545 309.324 81.9111 305.329C102.351 305.156 107.528 382.518 108.507 396.243C110.279 421.107 112.318 454.507 144.84 455.254C148.502 455.338 153.36 454.632 156.722 456.229C162.131 458.8 161.287 467.198 155.783 469.041Z"/>
</svg>
