<?xml version="1.0" encoding="utf-8" ?>
<svg xmlns="http://www.w3.org/2000/svg" xmlns:xlink="http://www.w3.org/1999/xlink" width="1023" height="1023">
	<path fill="#235784" transform="scale(1.6 1.6)" d="M266.347 124.517C231.852 138.775 220.431 87.0726 255.155 83.8692C272.415 83.4997 280.788 99.3996 275.541 114.471C285.395 124.614 314.473 164.036 322.834 168.999L327.496 169.146C333.966 164.151 339.518 156.866 344.911 150.709L369.939 122.072C374.224 117.187 378.546 109.949 384.923 107.661C402.896 112.188 383.713 127.902 378.017 134.581C365.425 149.349 352.804 163.892 339.607 178.13C346.45 189.406 351.838 185.332 366.277 185.309L443.647 185.304C466.7 185.308 522.075 183.286 539.143 197.228C549.576 205.75 548.439 219.78 548.441 231.923L548.431 405.927C548.43 419.633 550.832 452.283 542.344 462.44C530.251 476.91 498.712 476.946 481.14 478.576C485.531 487.039 496.048 497.13 496.483 506.727C496.849 514.786 490.694 521.386 482.691 521.585C463.978 522.051 449.991 495.086 437.561 483.136L437.219 482.811C427.898 482.63 429.051 480.608 427.581 485.639C426.121 490.638 419.239 496.209 414.774 498.144C370.382 514.557 299.445 512.743 253.533 504.435C237.865 501.6 216.344 500.598 212.062 482.443C209.179 482.304 206.304 482.445 203.422 482.556C193.176 493.544 170.478 530.657 151.447 519.91C133.949 510.029 153.907 488.392 160.226 478.234C143.221 476.613 116.429 477.236 103.149 465.134C92.5178 455.446 94.9674 436.865 94.9768 423.659L94.9833 243.735C94.9807 219.033 89.4642 197.144 120.46 190.004C145.35 184.269 173.478 185.306 198.968 185.304L266.097 185.314C279.433 185.317 292.818 185.558 306.145 185.13C307.363 182.746 308.336 180.216 309.375 177.749C297.656 162.012 279.421 139.215 266.347 124.517ZM254.145 97.8214C245.56 101.673 246.564 113.296 256.893 112.468C265.335 108.666 263.957 96.7429 254.145 97.8214ZM323.77 183.062C319.621 185.002 322.375 187.127 325.448 187.334C328.764 185.047 326.664 183.451 323.77 183.062ZM170.906 199.831C158.328 200.195 120.643 200.395 112.297 208.798C107.528 213.599 109.716 240.078 109.715 247.195L109.71 397.302C109.71 404.905 107.722 450.051 112.21 454.341C120.724 462.48 144.732 462.639 155.743 463.615C219.984 469.313 287.824 470.121 352.196 469.446C389.598 469.054 431.878 468.792 468.826 465.253C481.624 464.065 523.684 462.532 531.544 453.592C535.207 449.425 533.747 431.881 533.737 426.392L533.744 226.245C533.741 220.733 535.006 212.333 530.237 208.403C519.575 199.616 482.958 199.664 466.784 199.67L193.381 199.685C185.905 199.686 178.375 199.52 170.906 199.831ZM177.583 479.99C174.551 483.86 158.985 504.767 159.057 507.718C161.129 508.013 163.657 505.554 165.069 504.223C172.809 496.54 179.554 488.013 187.229 480.33C184.018 480.285 180.778 480.329 177.583 479.99ZM458.989 480.768L454.985 480.896C460.023 487.896 471.906 501.86 478.852 506.667C479.693 507.014 480.176 507.369 481.083 507.203L480.871 507.305L481.179 506.73C479.072 500.275 468.543 487.894 464.667 480.843C462.775 480.783 460.881 480.693 458.989 480.768ZM233.688 482.94L229.124 483.369C276.937 500.444 353.241 498.68 400.775 487.075C404.938 486.125 408.825 484.989 412.73 483.24C392.626 484.276 373.739 484 353.625 484.003L272.033 484C259.273 483.999 246.369 481.999 233.688 482.94Z"/>
	<path fill="#235784" transform="scale(1.6 1.6)" d="M432.304 457.754C427.947 457.83 423.557 458.28 419.198 458.483L381.251 460.056C349.93 461.267 318.599 460.948 287.256 460.434C270.089 460.153 129.454 455.583 120.136 447.196C114.73 442.33 117.224 403.649 117.224 395.251L117.204 253.934C117.201 243.393 116.643 232.534 117.527 222.042C118.347 212.313 136.922 213.873 143.744 213.205C166.616 210.965 186.77 209.895 209.49 209.204L419.072 209.235C447.512 209.221 471.258 210.389 499.834 213.758C508.655 214.799 524.888 213.206 525.964 223.978C526.799 232.349 526.179 243.781 526.173 252.406L526.175 393.774C526.181 409.008 526.697 424.42 526.038 439.626C525.745 446.397 523.908 448.086 517.3 449.486C493.778 454.469 456.405 456.157 432.304 457.754ZM203.796 223.906C180.975 223.099 154.632 227.268 131.655 228.81L131.597 349.868C131.598 378.622 131.227 407.435 131.685 436.183C232.639 446.516 335.674 449.958 436.951 443.048C461.815 441.152 486.655 438.036 511.292 436.219C511.673 425.128 511.529 414.016 511.528 402.919L511.489 229.858C507.926 228.955 504.151 228.719 500.504 228.307C468.654 224.704 441.439 223.758 409.73 223.755L253.912 223.755C237.247 223.756 220.446 223.33 203.796 223.906Z"/>
</svg>
