<?xml version="1.0" encoding="utf-8" ?>
<svg xmlns="http://www.w3.org/2000/svg" xmlns:xlink="http://www.w3.org/1999/xlink" width="1023" height="1023">
	<path fill="#235784" transform="scale(1.6 1.6)" d="M261.523 321.032C262.133 289.648 261.609 258.167 261.603 226.771C261.597 200.35 257.089 127.823 295.159 123.232C312.163 121.327 329.711 148.85 328.674 161.528C328.379 165.144 325.3 168.371 321.506 167.863C312.184 166.615 308.635 122.367 288.84 140.55C277.12 151.314 275.622 174.325 275.022 189.425C282.219 189.477 289.489 189.089 296.703 189.07L366.099 189.07C366.677 169.529 368.487 147.724 382.174 132.472C391.319 122.282 405.274 119.76 415.851 129.405C422.726 135.674 441.923 169.776 424.548 168.533C418.585 168.106 417.05 156.325 415.104 151.643C410.989 141.744 402.829 130.313 392.11 141.144C379.068 154.324 379.665 177.853 379.659 195.07L379.7 326.208C399.137 333.341 409.251 338.431 430.12 330.087C457.833 319.006 474.448 313.623 504.316 329.205C511.533 333.191 526.519 339.715 528.572 347.846C527.428 351.62 526.231 353.494 522.177 354.746C506.291 349.35 496.955 336.009 475.603 333.399C450.138 330.287 434.793 347.605 408.214 347.457C390.649 347.358 377.873 336.64 361.414 334.935C337.699 332.479 322.875 344.345 300.707 344.163C289.958 344.076 281.102 339.909 271.098 336.792C253.676 331.363 240.548 333.17 223.585 338.867C194.676 348.578 187.816 346.73 160.409 338.724C154.678 337.05 140.731 335.222 142.258 326.544C143.528 319.33 151.545 321.715 156.251 323.357C167.492 327.278 179.285 331.637 191.301 332.171C215.626 333.251 232.92 314.822 261.523 321.032ZM274.727 202.544C274.75 214.001 274.517 225.513 274.856 236.962C279.23 236.51 283.58 236.687 287.967 236.67L366.136 236.574C366.986 225.349 366.158 213.808 366.383 202.536C336.59 201.861 304.515 201.782 274.727 202.544ZM274.674 249.988C274.754 260.849 274.4 271.836 274.975 282.678C305.406 282.941 335.855 282.058 366.304 282.518C366.315 271.673 366.218 260.814 366.444 249.972C335.906 249.612 305.211 249.503 274.674 249.988ZM309.205 295.781C297.876 295.589 286.318 295.252 275.011 295.943C274.445 305.227 274.62 314.773 274.948 324.065C297.884 333.377 304.4 332.959 327.768 325.616C338.935 322.542 355.041 319.071 366.334 322.286C366.32 313.476 366.087 304.59 366.554 295.794C348.805 294.817 327.04 295.349 309.205 295.781Z"/>
	<path fill="#235784" transform="scale(1.6 1.6)" d="M216.691 373.912C189.176 378.301 184.441 370.055 160.336 365.944C157.285 365.424 135.064 366.038 143.774 354.809C148.417 348.822 165.885 353.159 171.821 354.865C209.686 365.749 199.442 363.946 236.344 353.499C267.7 344.623 282.167 361.759 307.15 361.559C320.821 361.45 328.297 356.72 340.575 353.727C369.585 346.656 388.29 364.555 412.626 363.075C429.548 362.046 444.479 352.371 461.674 350.781C478.862 348.819 493.759 356.381 508.866 363.232C515.601 366.286 525.143 368 527.297 376.008C524.113 390.988 505.938 376.887 496.053 372.107C482.342 365.478 467.258 361.504 452.214 365.845C418.774 375.494 415.357 382.161 379.868 370.345C355.729 362.308 351.838 365.202 327.542 371.94C291.719 381.874 279.528 363.52 253.337 364.422C238.347 364.939 230.255 371.039 216.691 373.912Z"/>
	<path fill="#235784" transform="scale(1.6 1.6)" d="M376.018 394.149C340.545 389.476 338.182 405.888 313.939 407.462C290.298 408.997 278.984 387.936 250.625 393.757C234.989 396.966 224.045 407.723 207.043 407.545C191.142 407.378 181.467 397.709 166.908 394.418C160.955 393.073 147.685 393.716 144.671 392.034C137.642 388.113 142.917 381.135 148.632 379.754C160.968 379.098 174.107 381.131 185.243 386.565C209.946 398.62 206.863 397.139 232.625 385.535C275.918 366.033 293.947 397.438 314.186 394.269C325.166 392.55 334.332 384.575 345.138 381.702C351.214 380.087 380.633 376.308 382.356 385.477C383.111 389.491 379.948 393.569 376.018 394.149Z"/>
	<path fill="#235784" transform="scale(1.6 1.6)" d="M432.313 403.057C423.49 407.816 390.103 412.175 402.229 397.023C405.614 392.795 413.622 394.442 418.457 393.862C428.801 392.621 438.844 381.346 455.958 379.814C462.227 379.117 493.11 379.763 488.051 391.991C484.724 400.033 477.064 394.827 471.071 393.537C456.494 390.401 444.908 396.219 432.313 403.057Z"/>
	<path fill="#235784" transform="scale(1.6 1.6)" d="M268.728 424.238C245.072 418.281 234.806 433.838 215.669 437.906C192.116 442.913 183.232 429.26 163.377 424.253C157.052 422.658 146.759 424.699 143.029 422.066C133.466 415.317 151.108 401.881 179.875 416.027C208.015 429.865 204.914 428.839 233.741 415.5C251.263 407.393 267.546 407.941 284.781 415.842C314.158 429.309 309.52 430.292 337.927 416.048C345.332 412.335 353.113 409.629 361.389 408.874C392.599 405.901 403.331 436.379 433.111 419.428C444.998 412.662 455.959 408.618 469.815 410.601C474.436 411.262 484.084 412.796 486.927 416.879C488.758 419.508 488.226 423.792 485.382 425.495C481.334 427.918 474.979 425.116 470.715 424.257C448.991 419.88 437.572 437.577 418.164 438.474C397.752 439.419 383.491 421.946 362.978 422.48C343.645 422.983 330.125 440.771 310.363 439.429C295.443 438.416 282.92 428.092 268.728 424.238Z"/>
	<path fill="#235784" transform="scale(1.6 1.6)" d="M159.755 454.409C151.351 452.782 144.224 457.403 136.787 460.529C127.562 464.406 104.688 469.11 97.1319 464.294C93.9783 462.284 92.8676 457.767 95.1857 454.7C97.8231 451.211 102.343 452.46 106.065 452.499C132.402 452.776 146.254 435.619 167.529 442.613C177.973 446.046 187.02 452.543 197.942 454.795C224.492 460.271 236.962 437.663 262.425 439.931C281.507 441.63 296.232 458.257 316.071 456.269C333.252 454.546 345.559 439.566 364.837 439.635C385.065 439.709 400.684 457.801 420.049 456.247C434.598 455.08 449.329 441.535 467.994 439.174C478.626 437.794 501.275 449.65 513.564 453.604C518.376 455.152 530.907 455.031 529.873 463.002C528.26 475.44 502.335 464.232 496.396 461.857C470.857 451.648 474.043 447.545 446.496 461.126C419.95 474.215 408.503 470.821 382.452 458.1C342.684 438.682 338.556 489.13 280.236 460.199C274.038 457.124 267.768 453.86 260.758 453.243C235.886 451.051 223.343 483.143 179.386 462.397C172.854 459.314 166.936 455.845 159.755 454.409Z"/>
</svg>
