<?xml version="1.0" encoding="utf-8" ?>
<svg xmlns="http://www.w3.org/2000/svg" xmlns:xlink="http://www.w3.org/1999/xlink" width="1024" height="1024">
	<path fill="#235784" transform="scale(1.6 1.6)" d="M157.88 188.586C108.321 251.275 94.8653 348.299 141.081 416.346C143.643 420.119 149.133 424.894 149.483 429.682C149.779 433.73 145.811 436.784 142.042 436.889C134.722 437.092 128.244 424.188 125.117 419.001C109.158 392.522 100.15 361.291 98.464 330.459C91.7519 207.748 188.176 97.9969 311.427 91.3839C358.856 88.7996 387.212 98.4421 427.513 118.872C442.571 126.505 450.006 127.204 432.384 141.267C427.674 145.026 423.818 149.343 421.36 154.913C428.801 156.453 454.981 156.688 462.202 154.982C466.44 123.909 441.428 114.911 441.747 106.208C441.904 101.922 445.484 97.8735 449.991 98.4813C466.412 100.696 479.665 140.606 477.623 155.981C475.281 173.619 451.28 171.45 438.432 171.355C428.838 171.285 415.878 172.567 409.611 163.532C401.693 152.117 410.751 139.292 420.462 132.807C330.941 79.0272 220.428 109.283 157.88 188.586Z"/>
	<path fill="#235784" transform="scale(1.6 1.6)" d="M495.398 218.145C495.948 213.59 496.796 210.77 501.713 209.764C517.588 209.149 535.342 268.247 537.786 280.303C561.499 397.258 482.714 514.844 365.881 538.364C314.334 548.741 256.866 540.783 213.152 510.448C209.756 508.091 206.54 505.498 203.092 503.21C201.222 511.726 206.734 515.517 208.547 523.29C205.266 535.317 191.241 526.434 184.607 522.437C168.346 512.64 162.376 498.862 157.953 481.175C155.654 470.234 155.579 457.748 167.376 452.942C175.257 449.731 200.445 444.861 209.074 444.213C220.092 443.385 230.406 449.092 230.863 461.095C231.317 473.025 220.162 483.048 212.772 491.206C251.615 524.45 313.053 533.889 362.732 524.037C429 510.896 485.567 462.186 511.647 400.249C533.643 348.01 533.859 281.527 503.892 232.135C501.06 227.467 497.374 223.297 495.398 218.145ZM208.605 459.813C197.62 460.795 182.422 463.231 172.08 466.811C171.842 479.447 174.787 492.192 183.062 502.027C183.99 503.083 184.903 504.156 185.851 505.194C190.237 493.329 199.01 484.238 207.176 474.866C212.726 468.496 224.204 458.524 208.605 459.813Z"/>
	<path fill="#235784" transform="scale(1.6 1.6)" d="M331.664 386.071C327.617 423.371 289.429 438.861 287.519 424.703C286.459 416.846 296.574 414.062 301.619 410.849C320.517 398.811 319.298 369.092 317.101 349.553C316.697 345.958 315.85 329.532 309.881 330.704C300.052 332.634 290.61 341.448 277.417 343.229C223.996 350.442 192.503 304.986 161.931 269.616C159.557 266.868 157.122 264.137 154.538 261.585C142.118 249.314 140.948 247.706 153.343 234.706C161.175 226.493 226.626 217.29 239.274 216.702C286.704 214.926 331.603 243.804 337.265 293.064C359.486 255.247 422.239 264.766 456.511 275.829C467.767 279.463 497.116 291.522 502.135 302.051C505.602 309.325 493.39 315.583 487.906 321.62C464.387 347.51 446.39 378.057 413.399 393.296C394.737 401.917 370.883 403.517 351.485 396.401C344.493 393.851 338.002 389.925 331.664 386.071ZM236.17 231.703C210.951 232.918 186.094 237.257 163.661 249.411C192.556 276.519 219.842 330.736 266.612 329.272C280.902 328.825 294.217 321.159 306.858 315.187C296.237 299.319 280.207 288.793 263.234 280.518C251.648 275.236 231.173 270.581 222.888 265.99C217.679 263.103 219.399 255.454 224.788 253.7C235.322 250.272 266.581 264.958 276.564 270.372C295.02 280.38 314.39 294.081 323.23 313.803C322.723 306.705 322.959 299.541 322.12 292.476C317.188 250.956 274.439 229.757 236.17 231.703ZM390.066 281.07C345.775 283.607 340.959 312.693 334.759 348.336C351.297 328.619 370.681 315.18 394.209 304.979C399.378 302.738 410.301 296.686 415.616 301.482C426.858 311.629 398.891 319.3 394.376 321.448C376.298 330.048 359.54 342.04 346.271 357.085C342.732 361.416 339.306 365.803 336.538 370.682C353.147 383.722 366.591 387.523 387.757 385.042C431.348 379.93 454.79 333.917 482.856 304.867C455.91 287.49 421.967 279.813 390.066 281.07Z"/>
</svg>
