<?xml version="1.0" encoding="utf-8" ?>
<svg xmlns="http://www.w3.org/2000/svg" xmlns:xlink="http://www.w3.org/1999/xlink" width="1024" height="1024">
	<path fill="#235784" transform="scale(1.6 1.6)" d="M313.692 124.035C313.237 116.559 311.91 109.684 320.211 106.567C329.233 107.683 327.326 117.315 327.412 124.017C333.142 124.488 338.908 124.641 344.627 125.224C401.763 131.054 453.546 167.014 482.184 216.37C487.585 225.679 495.947 239.905 497.138 250.579C498.876 266.141 486.086 280.394 473.503 287.522C440.24 306.363 398.206 303.41 378.226 267.62C367.842 286.89 347.205 294.507 326.595 297.304C327.192 319.918 326.82 342.606 326.821 365.231L326.85 493.505L348.032 493.45C353.785 493.44 365.92 491.645 366.206 500.473C366.51 509.86 352.628 507.544 346.835 507.544L320.781 507.527L291.665 507.502C286.538 507.509 273.972 509.648 273.861 501.267C273.74 492.132 287.62 493.443 293.437 493.46L312.832 493.528L312.817 325.54C312.817 316.12 312.659 306.671 313.063 297.259C293.006 296.608 272.08 284.569 262.021 267.328C248.585 307.583 184.063 305.209 156.613 279.25C140.567 264.075 141.306 250.93 149.878 232.441C179.374 168.821 243.012 125.551 313.692 124.035ZM317.859 136.965C296.257 139.816 275.507 208.879 271.298 226.209C269.92 231.88 267.402 239.025 268.175 244.831C271.778 271.897 298.082 283.819 322.898 283.556C336.838 283.073 351.161 278.178 360.852 267.742C375.007 252.498 372.765 245.603 369.42 229.118C365.268 208.651 345.443 135.858 317.859 136.965ZM347.547 139.626C366.994 163.875 378.071 199.937 384.079 229.982C386.499 242.08 386.624 255.561 393.193 266.367C408.841 292.104 450.4 286.834 471.566 271.928C476.896 267.689 482.232 261.723 483.089 254.666C484.483 243.185 462.408 210.754 454.623 201.247C430.795 172.151 386.398 142.466 347.547 139.626ZM291.149 140.113C249.255 145.922 207.566 172.321 182.383 205.619C175.13 215.21 161.717 236.45 158.636 247.641C155.744 258.145 162.328 267.25 170.845 272.916C192.952 286.537 231.6 291.894 247.38 266.16C254.508 254.535 252.714 245.824 255.313 233.789C262.63 199.905 272.23 168.415 292.621 140.135C292.068 140.023 291.705 140.014 291.149 140.113Z"/>
	<path fill="#235784" transform="scale(1.6 1.6)" d="M131.383 418.985C117.353 403.33 113.454 375.662 106.611 355.921C100.847 339.293 92.5418 323.816 84.7094 308.116C78.7466 296.164 74.869 283.557 83.0484 271.414C86.0046 267.025 89.9074 263.301 95.2439 262.251C117.253 261.406 135.183 340.1 140.41 358.014C142.672 365.764 146.38 374.837 147.952 382.499C173.915 380.582 203.864 382.481 230.336 382.023C251.742 381.653 268.481 402.171 252.895 417.679C245.803 424.735 236.558 424.085 227.299 424.025C234.654 444.582 238.179 466.412 245.244 487.137C246.709 491.437 251.518 499.697 249.284 504.092C246.195 510.167 238.538 507.902 235.956 502.818C229.673 490.444 222.415 458.987 218.866 444.923C217.185 438.143 215.34 431.403 213.536 424.655C190.438 424.666 167.451 424.731 144.368 424.062C139.269 441.255 122.51 503.15 115.545 507.114C111.466 509.435 107.594 507.354 105.844 503.309C104.447 500.078 118.733 462.1 120.527 455.47C123.804 443.357 126.462 430.535 131.383 418.985ZM95.8803 276.517C85.8827 289.458 100.052 306.68 105.811 318.478C112.517 332.217 118.67 346.686 123.082 361.339C127.325 375.427 131.834 400.459 143.258 410.556C146.878 411.174 150.767 410.718 154.44 410.679L214.782 410.666C221.392 410.665 234.333 411.36 240.445 409.859C248.403 405.477 243.618 397.631 236.04 396.168C233.18 395.615 229.835 395.966 226.925 395.988L155.641 396.013C152.205 396.018 142.858 396.749 140.178 395.842C132.267 393.167 111.502 291.53 95.8803 276.517Z"/>
	<path fill="#235784" transform="scale(1.6 1.6)" d="M492.289 382.17C498.492 359.299 507.249 333.199 514.482 310.452C518.658 297.32 526.593 265.386 543.067 262.265C554.095 261.799 561.114 274.443 562.145 283.984C563.606 297.514 554.85 309.469 549.176 321.012C538.168 343.407 531.407 363.225 524.469 387.038C520.427 400.912 518.541 407.351 509.436 418.817C516.871 441.455 521.783 464.987 530.26 487.287C532.589 493.415 539.864 504.282 530.302 508.143C517.482 513.321 500.693 436.663 496.597 424.641L449.583 424.66C442.214 424.655 434.71 424.211 427.367 424.683C425.128 429.809 423.908 435.778 422.385 441.174C417.674 454.521 408.59 503.328 400.523 507.294C397.31 508.873 393.652 507.558 392.154 504.309C389.895 499.412 393.373 492.898 394.759 488.201L400.742 467.893C404.877 453.519 408.011 438.802 412.811 424.635C403.936 424.794 394.382 424.386 387.476 418.039C379.365 410.585 381.115 397.479 388.366 390.11C399.576 378.721 416.572 382.156 430.872 382.167L492.289 382.17ZM544.227 276.416C532.534 291.35 518.367 344.89 511.353 368.054C501.578 400.334 506.798 395.926 476.015 395.998L425.023 395.986C418.625 395.985 394.748 393.017 396.035 404.977C396.309 407.52 398.299 409.503 400.694 410.168C405.051 411.061 409.249 410.717 413.654 410.741L475.717 410.666C483.166 410.668 490.771 410.991 498.188 410.278C509.207 399.923 512.737 376.838 517.162 362.752C522.593 345.466 529.636 327.851 538.23 311.834C541.872 305.046 555.526 283.074 544.227 276.416Z"/>
</svg>
