<?xml version="1.0" encoding="utf-8" ?>
<svg xmlns="http://www.w3.org/2000/svg" xmlns:xlink="http://www.w3.org/1999/xlink" width="1023" height="1023">
	<path fill="#235784" transform="scale(1.6 1.6)" d="M323.203 203.315C270.534 203.913 223.066 216.538 176.32 239.737C139.009 258.254 115.173 266.509 80.1389 233.817C62.1205 217.003 58.5338 206.244 81.0437 191.431C151.049 145.363 226.655 120.469 311.448 119.832C324.18 120.199 336.891 119.611 349.621 120.471C414.887 124.876 481.321 143.13 536.941 178.201C540.808 180.639 560.931 191.743 562.428 193.255C575.247 206.196 563.547 231.512 552.983 241.83C541.122 253.415 523.501 257.721 507.342 255.109C497.714 253.552 489.283 247.552 480.835 243.008C428.781 215.007 381.26 204.094 323.203 203.315ZM319.221 134.217C247.439 135.853 180.466 149.619 117.313 186.217C107.131 192.119 92.503 200.357 84.4851 208.892C78.6077 215.148 87.7202 221.245 92.2644 225.105C121.999 250.358 140.224 241.905 170.114 226.268C212.841 203.915 267.141 190.253 314.939 188.495C377.078 188.329 429.62 199.39 485.572 228.623C493.342 232.683 501.467 238.993 510.234 240.44C531.776 243.994 552.572 229.657 552.245 207.116L552.209 205.645C545.81 200.099 533.956 193.754 526.347 189.165C464.717 151.998 390.992 133.669 319.221 134.217Z"/>
	<path fill="#235784" transform="scale(1.6 1.6)" d="M321.543 340.039C277.773 339.998 261.73 365.973 238.083 367.4C218.439 368.586 193.335 354.219 192.19 332.684C191.048 311.223 211.382 296.014 227.558 285.717C254.737 268.415 285.236 258.878 317.403 257.324C361.592 254.675 404.201 276.285 434.146 307.89C463.975 339.373 422.941 383.88 386.218 365.356C381.736 363.095 377.775 359.969 373.663 357.121C358.044 346.304 340.6 340.727 321.543 340.039ZM319.41 272.031C282.084 273.368 239.693 288.121 213.88 315.688C196.742 333.991 216.829 353.556 236.67 352.534C247.861 351.958 258.367 342.363 268.408 337.463C284.537 329.591 301.571 325.715 319.502 325.414C340.826 326.546 360.099 330.414 378.109 342.15C382.807 345.211 387.165 349.014 392.13 351.61C406.735 359.245 428.423 350.656 429.355 332.961C430.008 320.563 416.363 311.185 407.872 304.146C383.016 283.537 352.109 270.339 319.41 272.031Z"/>
	<path fill="#235784" transform="scale(1.6 1.6)" d="M335.636 441.564C319.911 437.049 302.795 440.275 289.464 449.592C269.709 463.399 261.627 473.616 239.222 453.393C223.426 439.135 225.187 422.644 239.186 407.622C259.038 386.32 286.77 374.941 315.601 373.895C350.916 372.715 382.369 387.937 406.504 413.411C415.121 422.506 422.281 430.145 418.29 443.816C414.354 457.297 401.002 468.886 386.814 469.915C369.849 471.145 358.428 448.277 335.636 441.564ZM313.98 388.572C293.522 389.942 276.669 396.104 260.303 408.632C253.622 413.746 242.619 421.835 243.533 431.408C244.415 440.649 254.651 447.759 263.086 449.532C269.216 447.484 273.669 442.602 278.809 438.886C296.229 426.288 316.981 421.294 338.034 426.763C349.378 429.994 360.775 435.937 369.625 443.853C373.162 447.017 376.949 452.128 381.41 453.857C392.814 458.277 409.153 442.892 402.511 431.576C399.807 426.97 395.614 423.055 391.767 419.396C370.912 399.557 343.217 386.569 313.98 388.572Z"/>
	<path fill="#235784" transform="scale(1.6 1.6)" d="M328.594 559.488C302.007 563.016 275.832 541.212 273.388 514.786C270.839 487.221 291.56 462.31 319.113 459.813C364.49 455.609 391.068 507.448 363.323 541.458C354.812 551.891 341.85 558.159 328.594 559.488ZM321.179 474.815C274.432 478.379 279.277 547.122 326.325 544.604C374.984 538.987 366.488 472.027 321.179 474.815Z"/>
	<path fill="#235784" transform="scale(1.6 1.6)" d="M326.179 529.397C302.685 534.206 290.169 492.732 321.349 487.903C347.461 485.633 354.036 524.515 326.179 529.397ZM321.95 503.133C314.695 505.958 316.364 513.979 324.963 513.93C330.16 512.406 330.117 507.526 326.605 503.947C325 503.433 323.637 503.126 321.95 503.133Z"/>
</svg>
